G04 EAGLE Gerber RS-274X export*
G75*
%MOMM*%
%FSLAX34Y34*%
%LPD*%
%INSilkscreen Bottom*%
%IPPOS*%
%AMOC8*
5,1,8,0,0,1.08239X$1,22.5*%
G01*
%ADD10C,0.127000*%
%ADD11C,0.152400*%
%ADD12C,0.254000*%
%ADD13C,0.101600*%


D10*
X546100Y231140D02*
X114300Y231140D01*
X114300Y22860D01*
X546100Y22860D01*
X546100Y231140D01*
D11*
X535178Y119132D02*
X518922Y119132D01*
X518922Y117326D02*
X518922Y120939D01*
X535178Y120939D02*
X535178Y117326D01*
X535178Y127643D02*
X518922Y127643D01*
X518922Y136674D02*
X535178Y127643D01*
X535178Y136674D02*
X518922Y136674D01*
X136962Y106853D02*
X129738Y106853D01*
X136962Y106853D02*
X137095Y106855D01*
X137227Y106861D01*
X137359Y106871D01*
X137491Y106884D01*
X137623Y106902D01*
X137753Y106923D01*
X137884Y106948D01*
X138013Y106977D01*
X138141Y107010D01*
X138269Y107046D01*
X138395Y107086D01*
X138520Y107130D01*
X138644Y107178D01*
X138766Y107229D01*
X138887Y107284D01*
X139006Y107342D01*
X139124Y107404D01*
X139239Y107469D01*
X139353Y107538D01*
X139464Y107609D01*
X139573Y107685D01*
X139680Y107763D01*
X139785Y107844D01*
X139887Y107929D01*
X139987Y108016D01*
X140084Y108106D01*
X140179Y108199D01*
X140270Y108295D01*
X140359Y108393D01*
X140445Y108494D01*
X140528Y108598D01*
X140608Y108704D01*
X140684Y108812D01*
X140758Y108922D01*
X140828Y109035D01*
X140895Y109149D01*
X140958Y109266D01*
X141018Y109384D01*
X141075Y109504D01*
X141128Y109626D01*
X141177Y109749D01*
X141223Y109873D01*
X141265Y109999D01*
X141303Y110126D01*
X141338Y110254D01*
X141369Y110383D01*
X141396Y110512D01*
X141419Y110643D01*
X141439Y110774D01*
X141454Y110906D01*
X141466Y111038D01*
X141474Y111170D01*
X141478Y111303D01*
X141478Y111435D01*
X141474Y111568D01*
X141466Y111700D01*
X141454Y111832D01*
X141439Y111964D01*
X141419Y112095D01*
X141396Y112226D01*
X141369Y112355D01*
X141338Y112484D01*
X141303Y112612D01*
X141265Y112739D01*
X141223Y112865D01*
X141177Y112989D01*
X141128Y113112D01*
X141075Y113234D01*
X141018Y113354D01*
X140958Y113472D01*
X140895Y113589D01*
X140828Y113703D01*
X140758Y113816D01*
X140684Y113926D01*
X140608Y114034D01*
X140528Y114140D01*
X140445Y114244D01*
X140359Y114345D01*
X140270Y114443D01*
X140179Y114539D01*
X140084Y114632D01*
X139987Y114722D01*
X139887Y114809D01*
X139785Y114894D01*
X139680Y114975D01*
X139573Y115053D01*
X139464Y115129D01*
X139353Y115200D01*
X139239Y115269D01*
X139124Y115334D01*
X139006Y115396D01*
X138887Y115454D01*
X138766Y115509D01*
X138644Y115560D01*
X138520Y115608D01*
X138395Y115652D01*
X138269Y115692D01*
X138141Y115728D01*
X138013Y115761D01*
X137884Y115790D01*
X137753Y115815D01*
X137623Y115836D01*
X137491Y115854D01*
X137359Y115867D01*
X137227Y115877D01*
X137095Y115883D01*
X136962Y115885D01*
X136962Y115884D02*
X129738Y115884D01*
X129738Y115885D02*
X129605Y115883D01*
X129473Y115877D01*
X129341Y115867D01*
X129209Y115854D01*
X129077Y115836D01*
X128947Y115815D01*
X128816Y115790D01*
X128687Y115761D01*
X128559Y115728D01*
X128431Y115692D01*
X128305Y115652D01*
X128180Y115608D01*
X128056Y115560D01*
X127934Y115509D01*
X127813Y115454D01*
X127694Y115396D01*
X127576Y115334D01*
X127461Y115269D01*
X127347Y115200D01*
X127236Y115129D01*
X127127Y115053D01*
X127020Y114975D01*
X126915Y114894D01*
X126813Y114809D01*
X126713Y114722D01*
X126616Y114632D01*
X126521Y114539D01*
X126430Y114443D01*
X126341Y114345D01*
X126255Y114244D01*
X126172Y114140D01*
X126092Y114034D01*
X126016Y113926D01*
X125942Y113816D01*
X125872Y113703D01*
X125805Y113589D01*
X125742Y113472D01*
X125682Y113354D01*
X125625Y113234D01*
X125572Y113112D01*
X125523Y112989D01*
X125477Y112865D01*
X125435Y112739D01*
X125397Y112612D01*
X125362Y112484D01*
X125331Y112355D01*
X125304Y112226D01*
X125281Y112095D01*
X125261Y111964D01*
X125246Y111832D01*
X125234Y111700D01*
X125226Y111568D01*
X125222Y111435D01*
X125222Y111303D01*
X125226Y111170D01*
X125234Y111038D01*
X125246Y110906D01*
X125261Y110774D01*
X125281Y110643D01*
X125304Y110512D01*
X125331Y110383D01*
X125362Y110254D01*
X125397Y110126D01*
X125435Y109999D01*
X125477Y109873D01*
X125523Y109749D01*
X125572Y109626D01*
X125625Y109504D01*
X125682Y109384D01*
X125742Y109266D01*
X125805Y109149D01*
X125872Y109035D01*
X125942Y108922D01*
X126016Y108812D01*
X126092Y108704D01*
X126172Y108598D01*
X126255Y108494D01*
X126341Y108393D01*
X126430Y108295D01*
X126521Y108199D01*
X126616Y108106D01*
X126713Y108016D01*
X126813Y107929D01*
X126915Y107844D01*
X127020Y107763D01*
X127127Y107685D01*
X127236Y107609D01*
X127347Y107538D01*
X127461Y107469D01*
X127576Y107404D01*
X127694Y107342D01*
X127813Y107284D01*
X127934Y107229D01*
X128056Y107178D01*
X128180Y107130D01*
X128305Y107086D01*
X128431Y107046D01*
X128559Y107010D01*
X128687Y106977D01*
X128816Y106948D01*
X128947Y106923D01*
X129077Y106902D01*
X129209Y106884D01*
X129341Y106871D01*
X129473Y106861D01*
X129605Y106855D01*
X129738Y106853D01*
X129738Y123006D02*
X141478Y123006D01*
X129738Y123005D02*
X129605Y123007D01*
X129473Y123013D01*
X129341Y123023D01*
X129209Y123036D01*
X129077Y123054D01*
X128947Y123075D01*
X128816Y123100D01*
X128687Y123129D01*
X128559Y123162D01*
X128431Y123198D01*
X128305Y123238D01*
X128180Y123282D01*
X128056Y123330D01*
X127934Y123381D01*
X127813Y123436D01*
X127694Y123494D01*
X127576Y123556D01*
X127461Y123621D01*
X127347Y123690D01*
X127236Y123761D01*
X127127Y123837D01*
X127020Y123915D01*
X126915Y123996D01*
X126813Y124081D01*
X126713Y124168D01*
X126616Y124258D01*
X126521Y124351D01*
X126430Y124447D01*
X126341Y124545D01*
X126255Y124646D01*
X126172Y124750D01*
X126092Y124856D01*
X126016Y124964D01*
X125942Y125074D01*
X125872Y125187D01*
X125805Y125301D01*
X125742Y125418D01*
X125682Y125536D01*
X125625Y125656D01*
X125572Y125778D01*
X125523Y125901D01*
X125477Y126025D01*
X125435Y126151D01*
X125397Y126278D01*
X125362Y126406D01*
X125331Y126535D01*
X125304Y126664D01*
X125281Y126795D01*
X125261Y126926D01*
X125246Y127058D01*
X125234Y127190D01*
X125226Y127322D01*
X125222Y127455D01*
X125222Y127587D01*
X125226Y127720D01*
X125234Y127852D01*
X125246Y127984D01*
X125261Y128116D01*
X125281Y128247D01*
X125304Y128378D01*
X125331Y128507D01*
X125362Y128636D01*
X125397Y128764D01*
X125435Y128891D01*
X125477Y129017D01*
X125523Y129141D01*
X125572Y129264D01*
X125625Y129386D01*
X125682Y129506D01*
X125742Y129624D01*
X125805Y129741D01*
X125872Y129855D01*
X125942Y129968D01*
X126016Y130078D01*
X126092Y130186D01*
X126172Y130292D01*
X126255Y130396D01*
X126341Y130497D01*
X126430Y130595D01*
X126521Y130691D01*
X126616Y130784D01*
X126713Y130874D01*
X126813Y130961D01*
X126915Y131046D01*
X127020Y131127D01*
X127127Y131205D01*
X127236Y131281D01*
X127347Y131352D01*
X127461Y131421D01*
X127576Y131486D01*
X127694Y131548D01*
X127813Y131606D01*
X127934Y131661D01*
X128056Y131712D01*
X128180Y131760D01*
X128305Y131804D01*
X128431Y131844D01*
X128559Y131880D01*
X128687Y131913D01*
X128816Y131942D01*
X128947Y131967D01*
X129077Y131988D01*
X129209Y132006D01*
X129341Y132019D01*
X129473Y132029D01*
X129605Y132035D01*
X129738Y132037D01*
X141478Y132037D01*
X141478Y142631D02*
X125222Y142631D01*
X141478Y138116D02*
X141478Y147147D01*
D12*
X133350Y184150D02*
X133350Y196850D01*
X139700Y190500D02*
X127000Y190500D01*
X527050Y69850D02*
X527050Y57150D01*
X133350Y57150D02*
X133350Y69850D01*
X527050Y184150D02*
X527050Y196850D01*
X533400Y190500D02*
X520700Y190500D01*
D13*
X344304Y245054D02*
X344304Y253492D01*
X344304Y245054D02*
X344302Y244941D01*
X344296Y244828D01*
X344286Y244715D01*
X344272Y244602D01*
X344255Y244490D01*
X344233Y244379D01*
X344208Y244269D01*
X344178Y244159D01*
X344145Y244051D01*
X344108Y243944D01*
X344068Y243838D01*
X344023Y243734D01*
X343975Y243631D01*
X343924Y243530D01*
X343869Y243431D01*
X343811Y243334D01*
X343749Y243239D01*
X343684Y243146D01*
X343616Y243056D01*
X343545Y242968D01*
X343470Y242882D01*
X343393Y242799D01*
X343313Y242719D01*
X343230Y242642D01*
X343144Y242567D01*
X343056Y242496D01*
X342966Y242428D01*
X342873Y242363D01*
X342778Y242301D01*
X342681Y242243D01*
X342582Y242188D01*
X342481Y242137D01*
X342378Y242089D01*
X342274Y242044D01*
X342168Y242004D01*
X342061Y241967D01*
X341953Y241934D01*
X341843Y241904D01*
X341733Y241879D01*
X341622Y241857D01*
X341510Y241840D01*
X341397Y241826D01*
X341284Y241816D01*
X341171Y241810D01*
X341058Y241808D01*
X340945Y241810D01*
X340832Y241816D01*
X340719Y241826D01*
X340606Y241840D01*
X340494Y241857D01*
X340383Y241879D01*
X340273Y241904D01*
X340163Y241934D01*
X340055Y241967D01*
X339948Y242004D01*
X339842Y242044D01*
X339738Y242089D01*
X339635Y242137D01*
X339534Y242188D01*
X339435Y242243D01*
X339338Y242301D01*
X339243Y242363D01*
X339150Y242428D01*
X339060Y242496D01*
X338972Y242567D01*
X338886Y242642D01*
X338803Y242719D01*
X338723Y242799D01*
X338646Y242882D01*
X338571Y242968D01*
X338500Y243056D01*
X338432Y243146D01*
X338367Y243239D01*
X338305Y243334D01*
X338247Y243431D01*
X338192Y243530D01*
X338141Y243631D01*
X338093Y243734D01*
X338048Y243838D01*
X338008Y243944D01*
X337971Y244051D01*
X337938Y244159D01*
X337908Y244269D01*
X337883Y244379D01*
X337861Y244490D01*
X337844Y244602D01*
X337830Y244715D01*
X337820Y244828D01*
X337814Y244941D01*
X337812Y245054D01*
X337813Y245054D02*
X337813Y253492D01*
X330010Y253492D02*
X330010Y241808D01*
X330010Y247650D02*
X331632Y248624D01*
X331633Y248623D02*
X331706Y248670D01*
X331777Y248719D01*
X331847Y248772D01*
X331913Y248828D01*
X331977Y248887D01*
X332039Y248948D01*
X332097Y249012D01*
X332153Y249079D01*
X332205Y249148D01*
X332255Y249220D01*
X332301Y249294D01*
X332344Y249369D01*
X332383Y249447D01*
X332419Y249526D01*
X332451Y249607D01*
X332480Y249689D01*
X332505Y249772D01*
X332526Y249856D01*
X332543Y249941D01*
X332557Y250027D01*
X332566Y250113D01*
X332572Y250200D01*
X332574Y250287D01*
X332572Y250374D01*
X332566Y250461D01*
X332556Y250547D01*
X332543Y250633D01*
X332525Y250718D01*
X332504Y250802D01*
X332479Y250885D01*
X332450Y250968D01*
X332418Y251048D01*
X332382Y251127D01*
X332343Y251205D01*
X332300Y251280D01*
X332253Y251354D01*
X332204Y251425D01*
X332151Y251495D01*
X332096Y251561D01*
X332037Y251625D01*
X331976Y251687D01*
X331911Y251746D01*
X331845Y251801D01*
X331776Y251854D01*
X331704Y251904D01*
X331631Y251950D01*
X331555Y251993D01*
X331478Y252032D01*
X331399Y252068D01*
X331318Y252101D01*
X331236Y252129D01*
X331153Y252155D01*
X331069Y252176D01*
X330983Y252193D01*
X330983Y252194D02*
X330843Y252218D01*
X330701Y252238D01*
X330560Y252254D01*
X330418Y252265D01*
X330275Y252273D01*
X330133Y252277D01*
X329990Y252278D01*
X329847Y252274D01*
X329705Y252266D01*
X329563Y252254D01*
X329421Y252238D01*
X329280Y252219D01*
X329139Y252195D01*
X328999Y252168D01*
X328860Y252136D01*
X328722Y252101D01*
X328584Y252062D01*
X328448Y252019D01*
X328314Y251973D01*
X328180Y251922D01*
X328048Y251869D01*
X327918Y251811D01*
X327789Y251750D01*
X327662Y251685D01*
X327536Y251617D01*
X327413Y251545D01*
X330010Y247650D02*
X328387Y246676D01*
X328386Y246677D02*
X328313Y246630D01*
X328242Y246581D01*
X328172Y246528D01*
X328106Y246472D01*
X328042Y246413D01*
X327980Y246352D01*
X327922Y246288D01*
X327866Y246221D01*
X327814Y246152D01*
X327764Y246080D01*
X327718Y246006D01*
X327675Y245931D01*
X327636Y245853D01*
X327600Y245774D01*
X327568Y245693D01*
X327539Y245611D01*
X327514Y245528D01*
X327493Y245444D01*
X327476Y245359D01*
X327462Y245273D01*
X327453Y245187D01*
X327447Y245100D01*
X327445Y245013D01*
X327447Y244926D01*
X327453Y244839D01*
X327463Y244753D01*
X327476Y244667D01*
X327494Y244582D01*
X327515Y244498D01*
X327540Y244415D01*
X327569Y244332D01*
X327601Y244252D01*
X327637Y244173D01*
X327676Y244095D01*
X327719Y244020D01*
X327766Y243946D01*
X327815Y243875D01*
X327868Y243805D01*
X327923Y243739D01*
X327982Y243675D01*
X328043Y243613D01*
X328108Y243554D01*
X328174Y243499D01*
X328243Y243446D01*
X328315Y243396D01*
X328388Y243350D01*
X328464Y243307D01*
X328541Y243268D01*
X328620Y243232D01*
X328701Y243199D01*
X328783Y243171D01*
X328866Y243145D01*
X328950Y243124D01*
X329035Y243107D01*
X329036Y243106D02*
X329176Y243082D01*
X329318Y243062D01*
X329459Y243046D01*
X329601Y243035D01*
X329744Y243027D01*
X329886Y243023D01*
X330029Y243022D01*
X330172Y243026D01*
X330314Y243034D01*
X330456Y243046D01*
X330598Y243062D01*
X330739Y243081D01*
X330880Y243105D01*
X331020Y243132D01*
X331159Y243164D01*
X331297Y243199D01*
X331435Y243238D01*
X331571Y243281D01*
X331705Y243327D01*
X331839Y243378D01*
X331971Y243431D01*
X332102Y243489D01*
X332230Y243550D01*
X332357Y243615D01*
X332483Y243683D01*
X332606Y243755D01*
X322587Y250896D02*
X319342Y253492D01*
X319342Y241808D01*
X322587Y241808D02*
X316096Y241808D01*
D10*
X443230Y424180D02*
X621030Y424180D01*
X443230Y424180D02*
X443230Y307340D01*
X621030Y307340D01*
X621030Y424180D01*
D13*
X601472Y360024D02*
X589788Y360024D01*
X589788Y358726D02*
X589788Y361322D01*
X601472Y361322D02*
X601472Y358726D01*
X601472Y366303D02*
X589788Y366303D01*
X589788Y372794D02*
X601472Y366303D01*
X601472Y372794D02*
X589788Y372794D01*
D12*
X608330Y386080D02*
X608330Y396240D01*
X608330Y345440D02*
X608330Y335280D01*
X613410Y340360D02*
X603250Y340360D01*
X455930Y345440D02*
X455930Y335280D01*
X461010Y340360D02*
X450850Y340360D01*
X455930Y386080D02*
X455930Y396240D01*
D13*
X466034Y351085D02*
X471226Y351085D01*
X471226Y351084D02*
X471339Y351086D01*
X471452Y351092D01*
X471565Y351102D01*
X471678Y351116D01*
X471790Y351133D01*
X471901Y351155D01*
X472011Y351180D01*
X472121Y351210D01*
X472229Y351243D01*
X472336Y351280D01*
X472442Y351320D01*
X472546Y351365D01*
X472649Y351413D01*
X472750Y351464D01*
X472849Y351519D01*
X472946Y351577D01*
X473041Y351639D01*
X473134Y351704D01*
X473224Y351772D01*
X473312Y351843D01*
X473398Y351918D01*
X473481Y351995D01*
X473561Y352075D01*
X473638Y352158D01*
X473713Y352244D01*
X473784Y352332D01*
X473852Y352422D01*
X473917Y352515D01*
X473979Y352610D01*
X474037Y352707D01*
X474092Y352806D01*
X474143Y352907D01*
X474191Y353010D01*
X474236Y353114D01*
X474276Y353220D01*
X474313Y353327D01*
X474346Y353435D01*
X474376Y353545D01*
X474401Y353655D01*
X474423Y353766D01*
X474440Y353878D01*
X474454Y353991D01*
X474464Y354104D01*
X474470Y354217D01*
X474472Y354330D01*
X474470Y354443D01*
X474464Y354556D01*
X474454Y354669D01*
X474440Y354782D01*
X474423Y354894D01*
X474401Y355005D01*
X474376Y355115D01*
X474346Y355225D01*
X474313Y355333D01*
X474276Y355440D01*
X474236Y355546D01*
X474191Y355650D01*
X474143Y355753D01*
X474092Y355854D01*
X474037Y355953D01*
X473979Y356050D01*
X473917Y356145D01*
X473852Y356238D01*
X473784Y356328D01*
X473713Y356416D01*
X473638Y356502D01*
X473561Y356585D01*
X473481Y356665D01*
X473398Y356742D01*
X473312Y356817D01*
X473224Y356888D01*
X473134Y356956D01*
X473041Y357021D01*
X472946Y357083D01*
X472849Y357141D01*
X472750Y357196D01*
X472649Y357247D01*
X472546Y357295D01*
X472442Y357340D01*
X472336Y357380D01*
X472229Y357417D01*
X472121Y357450D01*
X472011Y357480D01*
X471901Y357505D01*
X471790Y357527D01*
X471678Y357544D01*
X471565Y357558D01*
X471452Y357568D01*
X471339Y357574D01*
X471226Y357576D01*
X466034Y357576D01*
X465921Y357574D01*
X465808Y357568D01*
X465695Y357558D01*
X465582Y357544D01*
X465470Y357527D01*
X465359Y357505D01*
X465249Y357480D01*
X465139Y357450D01*
X465031Y357417D01*
X464924Y357380D01*
X464818Y357340D01*
X464714Y357295D01*
X464611Y357247D01*
X464510Y357196D01*
X464411Y357141D01*
X464314Y357083D01*
X464219Y357021D01*
X464126Y356956D01*
X464036Y356888D01*
X463948Y356817D01*
X463862Y356742D01*
X463779Y356665D01*
X463699Y356585D01*
X463622Y356502D01*
X463547Y356416D01*
X463476Y356328D01*
X463408Y356238D01*
X463343Y356145D01*
X463281Y356050D01*
X463223Y355953D01*
X463168Y355854D01*
X463117Y355753D01*
X463069Y355650D01*
X463024Y355546D01*
X462984Y355440D01*
X462947Y355333D01*
X462914Y355225D01*
X462884Y355115D01*
X462859Y355005D01*
X462837Y354894D01*
X462820Y354782D01*
X462806Y354669D01*
X462796Y354556D01*
X462790Y354443D01*
X462788Y354330D01*
X462790Y354217D01*
X462796Y354104D01*
X462806Y353991D01*
X462820Y353878D01*
X462837Y353766D01*
X462859Y353655D01*
X462884Y353545D01*
X462914Y353435D01*
X462947Y353327D01*
X462984Y353220D01*
X463024Y353114D01*
X463069Y353010D01*
X463117Y352907D01*
X463168Y352806D01*
X463223Y352707D01*
X463281Y352610D01*
X463343Y352515D01*
X463408Y352422D01*
X463476Y352332D01*
X463547Y352244D01*
X463622Y352158D01*
X463699Y352075D01*
X463779Y351995D01*
X463862Y351918D01*
X463948Y351843D01*
X464036Y351772D01*
X464126Y351704D01*
X464219Y351639D01*
X464314Y351577D01*
X464411Y351519D01*
X464510Y351464D01*
X464611Y351413D01*
X464714Y351365D01*
X464818Y351320D01*
X464924Y351280D01*
X465031Y351243D01*
X465139Y351210D01*
X465249Y351180D01*
X465359Y351155D01*
X465470Y351133D01*
X465582Y351116D01*
X465695Y351102D01*
X465808Y351092D01*
X465921Y351086D01*
X466034Y351084D01*
X466034Y362895D02*
X474472Y362895D01*
X466034Y362895D02*
X465921Y362897D01*
X465808Y362903D01*
X465695Y362913D01*
X465582Y362927D01*
X465470Y362944D01*
X465359Y362966D01*
X465249Y362991D01*
X465139Y363021D01*
X465031Y363054D01*
X464924Y363091D01*
X464818Y363131D01*
X464714Y363176D01*
X464611Y363224D01*
X464510Y363275D01*
X464411Y363330D01*
X464314Y363388D01*
X464219Y363450D01*
X464126Y363515D01*
X464036Y363583D01*
X463948Y363654D01*
X463862Y363729D01*
X463779Y363806D01*
X463699Y363886D01*
X463622Y363969D01*
X463547Y364055D01*
X463476Y364143D01*
X463408Y364233D01*
X463343Y364326D01*
X463281Y364421D01*
X463223Y364518D01*
X463168Y364617D01*
X463117Y364718D01*
X463069Y364821D01*
X463024Y364925D01*
X462984Y365031D01*
X462947Y365138D01*
X462914Y365246D01*
X462884Y365356D01*
X462859Y365466D01*
X462837Y365577D01*
X462820Y365689D01*
X462806Y365802D01*
X462796Y365915D01*
X462790Y366028D01*
X462788Y366141D01*
X462790Y366254D01*
X462796Y366367D01*
X462806Y366480D01*
X462820Y366593D01*
X462837Y366705D01*
X462859Y366816D01*
X462884Y366926D01*
X462914Y367036D01*
X462947Y367144D01*
X462984Y367251D01*
X463024Y367357D01*
X463069Y367461D01*
X463117Y367564D01*
X463168Y367665D01*
X463223Y367764D01*
X463281Y367861D01*
X463343Y367956D01*
X463408Y368049D01*
X463476Y368139D01*
X463547Y368227D01*
X463622Y368313D01*
X463699Y368396D01*
X463779Y368476D01*
X463862Y368553D01*
X463948Y368628D01*
X464036Y368699D01*
X464126Y368767D01*
X464219Y368832D01*
X464314Y368894D01*
X464411Y368952D01*
X464510Y369007D01*
X464611Y369058D01*
X464714Y369106D01*
X464818Y369151D01*
X464924Y369191D01*
X465031Y369228D01*
X465139Y369261D01*
X465249Y369291D01*
X465359Y369316D01*
X465470Y369338D01*
X465582Y369355D01*
X465695Y369369D01*
X465808Y369379D01*
X465921Y369385D01*
X466034Y369387D01*
X474472Y369387D01*
X474472Y377190D02*
X462788Y377190D01*
X474472Y373944D02*
X474472Y380436D01*
X546234Y439364D02*
X546234Y447802D01*
X546234Y439364D02*
X546232Y439251D01*
X546226Y439138D01*
X546216Y439025D01*
X546202Y438912D01*
X546185Y438800D01*
X546163Y438689D01*
X546138Y438579D01*
X546108Y438469D01*
X546075Y438361D01*
X546038Y438254D01*
X545998Y438148D01*
X545953Y438044D01*
X545905Y437941D01*
X545854Y437840D01*
X545799Y437741D01*
X545741Y437644D01*
X545679Y437549D01*
X545614Y437456D01*
X545546Y437366D01*
X545475Y437278D01*
X545400Y437192D01*
X545323Y437109D01*
X545243Y437029D01*
X545160Y436952D01*
X545074Y436877D01*
X544986Y436806D01*
X544896Y436738D01*
X544803Y436673D01*
X544708Y436611D01*
X544611Y436553D01*
X544512Y436498D01*
X544411Y436447D01*
X544308Y436399D01*
X544204Y436354D01*
X544098Y436314D01*
X543991Y436277D01*
X543883Y436244D01*
X543773Y436214D01*
X543663Y436189D01*
X543552Y436167D01*
X543440Y436150D01*
X543327Y436136D01*
X543214Y436126D01*
X543101Y436120D01*
X542988Y436118D01*
X542875Y436120D01*
X542762Y436126D01*
X542649Y436136D01*
X542536Y436150D01*
X542424Y436167D01*
X542313Y436189D01*
X542203Y436214D01*
X542093Y436244D01*
X541985Y436277D01*
X541878Y436314D01*
X541772Y436354D01*
X541668Y436399D01*
X541565Y436447D01*
X541464Y436498D01*
X541365Y436553D01*
X541268Y436611D01*
X541173Y436673D01*
X541080Y436738D01*
X540990Y436806D01*
X540902Y436877D01*
X540816Y436952D01*
X540733Y437029D01*
X540653Y437109D01*
X540576Y437192D01*
X540501Y437278D01*
X540430Y437366D01*
X540362Y437456D01*
X540297Y437549D01*
X540235Y437644D01*
X540177Y437741D01*
X540122Y437840D01*
X540071Y437941D01*
X540023Y438044D01*
X539978Y438148D01*
X539938Y438254D01*
X539901Y438361D01*
X539868Y438469D01*
X539838Y438579D01*
X539813Y438689D01*
X539791Y438800D01*
X539774Y438912D01*
X539760Y439025D01*
X539750Y439138D01*
X539744Y439251D01*
X539742Y439364D01*
X539743Y439364D02*
X539743Y447802D01*
X531940Y447802D02*
X531940Y436118D01*
X531940Y441960D02*
X533562Y442934D01*
X533563Y442933D02*
X533636Y442980D01*
X533707Y443029D01*
X533777Y443082D01*
X533843Y443138D01*
X533907Y443197D01*
X533969Y443258D01*
X534027Y443322D01*
X534083Y443389D01*
X534135Y443458D01*
X534185Y443530D01*
X534231Y443604D01*
X534274Y443679D01*
X534313Y443757D01*
X534349Y443836D01*
X534381Y443917D01*
X534410Y443999D01*
X534435Y444082D01*
X534456Y444166D01*
X534473Y444251D01*
X534487Y444337D01*
X534496Y444423D01*
X534502Y444510D01*
X534504Y444597D01*
X534502Y444684D01*
X534496Y444771D01*
X534486Y444857D01*
X534473Y444943D01*
X534455Y445028D01*
X534434Y445112D01*
X534409Y445195D01*
X534380Y445278D01*
X534348Y445358D01*
X534312Y445437D01*
X534273Y445515D01*
X534230Y445590D01*
X534183Y445664D01*
X534134Y445735D01*
X534081Y445805D01*
X534026Y445871D01*
X533967Y445935D01*
X533906Y445997D01*
X533841Y446056D01*
X533775Y446111D01*
X533706Y446164D01*
X533634Y446214D01*
X533561Y446260D01*
X533485Y446303D01*
X533408Y446342D01*
X533329Y446378D01*
X533248Y446411D01*
X533166Y446439D01*
X533083Y446465D01*
X532999Y446486D01*
X532913Y446503D01*
X532913Y446504D02*
X532773Y446528D01*
X532631Y446548D01*
X532490Y446564D01*
X532348Y446575D01*
X532205Y446583D01*
X532063Y446587D01*
X531920Y446588D01*
X531777Y446584D01*
X531635Y446576D01*
X531493Y446564D01*
X531351Y446548D01*
X531210Y446529D01*
X531069Y446505D01*
X530929Y446478D01*
X530790Y446446D01*
X530652Y446411D01*
X530514Y446372D01*
X530378Y446329D01*
X530244Y446283D01*
X530110Y446232D01*
X529978Y446179D01*
X529848Y446121D01*
X529719Y446060D01*
X529592Y445995D01*
X529466Y445927D01*
X529343Y445855D01*
X531940Y441960D02*
X530317Y440986D01*
X530316Y440987D02*
X530243Y440940D01*
X530172Y440891D01*
X530102Y440838D01*
X530036Y440782D01*
X529972Y440723D01*
X529910Y440662D01*
X529852Y440598D01*
X529796Y440531D01*
X529744Y440462D01*
X529694Y440390D01*
X529648Y440316D01*
X529605Y440241D01*
X529566Y440163D01*
X529530Y440084D01*
X529498Y440003D01*
X529469Y439921D01*
X529444Y439838D01*
X529423Y439754D01*
X529406Y439669D01*
X529392Y439583D01*
X529383Y439497D01*
X529377Y439410D01*
X529375Y439323D01*
X529377Y439236D01*
X529383Y439149D01*
X529393Y439063D01*
X529406Y438977D01*
X529424Y438892D01*
X529445Y438808D01*
X529470Y438725D01*
X529499Y438642D01*
X529531Y438562D01*
X529567Y438483D01*
X529606Y438405D01*
X529649Y438330D01*
X529696Y438256D01*
X529745Y438185D01*
X529798Y438115D01*
X529853Y438049D01*
X529912Y437985D01*
X529973Y437923D01*
X530038Y437864D01*
X530104Y437809D01*
X530173Y437756D01*
X530245Y437706D01*
X530318Y437660D01*
X530394Y437617D01*
X530471Y437578D01*
X530550Y437542D01*
X530631Y437509D01*
X530713Y437481D01*
X530796Y437455D01*
X530880Y437434D01*
X530965Y437417D01*
X530966Y437416D02*
X531106Y437392D01*
X531248Y437372D01*
X531389Y437356D01*
X531531Y437345D01*
X531674Y437337D01*
X531816Y437333D01*
X531959Y437332D01*
X532102Y437336D01*
X532244Y437344D01*
X532386Y437356D01*
X532528Y437372D01*
X532669Y437391D01*
X532810Y437415D01*
X532950Y437442D01*
X533089Y437474D01*
X533227Y437509D01*
X533365Y437548D01*
X533501Y437591D01*
X533635Y437637D01*
X533769Y437688D01*
X533901Y437741D01*
X534032Y437799D01*
X534160Y437860D01*
X534287Y437925D01*
X534413Y437993D01*
X534536Y438065D01*
X520947Y447802D02*
X520840Y447800D01*
X520734Y447794D01*
X520628Y447784D01*
X520522Y447771D01*
X520416Y447753D01*
X520312Y447732D01*
X520208Y447707D01*
X520105Y447678D01*
X520004Y447646D01*
X519904Y447609D01*
X519805Y447569D01*
X519707Y447526D01*
X519611Y447479D01*
X519517Y447428D01*
X519425Y447374D01*
X519335Y447317D01*
X519247Y447257D01*
X519162Y447193D01*
X519079Y447126D01*
X518998Y447056D01*
X518920Y446984D01*
X518844Y446908D01*
X518772Y446830D01*
X518702Y446749D01*
X518635Y446666D01*
X518571Y446581D01*
X518511Y446493D01*
X518454Y446403D01*
X518400Y446311D01*
X518349Y446217D01*
X518302Y446121D01*
X518259Y446023D01*
X518219Y445924D01*
X518182Y445824D01*
X518150Y445723D01*
X518121Y445620D01*
X518096Y445516D01*
X518075Y445412D01*
X518057Y445306D01*
X518044Y445200D01*
X518034Y445094D01*
X518028Y444988D01*
X518026Y444881D01*
X520947Y447802D02*
X521068Y447800D01*
X521189Y447794D01*
X521309Y447784D01*
X521430Y447771D01*
X521549Y447753D01*
X521669Y447732D01*
X521787Y447707D01*
X521904Y447678D01*
X522021Y447645D01*
X522136Y447609D01*
X522250Y447568D01*
X522363Y447525D01*
X522475Y447477D01*
X522584Y447426D01*
X522692Y447371D01*
X522799Y447313D01*
X522903Y447252D01*
X523005Y447187D01*
X523105Y447119D01*
X523203Y447048D01*
X523299Y446974D01*
X523392Y446897D01*
X523482Y446816D01*
X523570Y446733D01*
X523655Y446647D01*
X523738Y446558D01*
X523817Y446467D01*
X523894Y446373D01*
X523967Y446277D01*
X524037Y446179D01*
X524104Y446078D01*
X524168Y445975D01*
X524229Y445870D01*
X524286Y445763D01*
X524339Y445655D01*
X524389Y445545D01*
X524435Y445433D01*
X524478Y445320D01*
X524517Y445205D01*
X519000Y442609D02*
X518921Y442687D01*
X518845Y442767D01*
X518772Y442850D01*
X518702Y442936D01*
X518635Y443023D01*
X518571Y443114D01*
X518511Y443206D01*
X518453Y443300D01*
X518399Y443397D01*
X518349Y443495D01*
X518302Y443595D01*
X518258Y443696D01*
X518218Y443799D01*
X518182Y443904D01*
X518150Y444009D01*
X518121Y444116D01*
X518096Y444223D01*
X518074Y444332D01*
X518057Y444441D01*
X518043Y444550D01*
X518034Y444660D01*
X518028Y444771D01*
X518026Y444881D01*
X519000Y442609D02*
X524517Y436118D01*
X518026Y436118D01*
D10*
X680701Y440978D02*
X680701Y260978D01*
X680701Y440978D02*
X907701Y440978D01*
X907701Y395978D01*
X907701Y260978D02*
X680701Y260978D01*
X920701Y305978D02*
X920701Y395978D01*
X907701Y395978D01*
X907701Y305978D02*
X920701Y305978D01*
X907701Y305978D02*
X907701Y260978D01*
D13*
X928130Y262586D02*
X936568Y262586D01*
X928130Y262585D02*
X928017Y262587D01*
X927904Y262593D01*
X927791Y262603D01*
X927678Y262617D01*
X927566Y262634D01*
X927455Y262656D01*
X927345Y262681D01*
X927235Y262711D01*
X927127Y262744D01*
X927020Y262781D01*
X926914Y262821D01*
X926810Y262866D01*
X926707Y262914D01*
X926606Y262965D01*
X926507Y263020D01*
X926410Y263078D01*
X926315Y263140D01*
X926222Y263205D01*
X926132Y263273D01*
X926044Y263344D01*
X925958Y263419D01*
X925875Y263496D01*
X925795Y263576D01*
X925718Y263659D01*
X925643Y263745D01*
X925572Y263833D01*
X925504Y263923D01*
X925439Y264016D01*
X925377Y264111D01*
X925319Y264208D01*
X925264Y264307D01*
X925213Y264408D01*
X925165Y264511D01*
X925120Y264615D01*
X925080Y264721D01*
X925043Y264828D01*
X925010Y264936D01*
X924980Y265046D01*
X924955Y265156D01*
X924933Y265267D01*
X924916Y265379D01*
X924902Y265492D01*
X924892Y265605D01*
X924886Y265718D01*
X924884Y265831D01*
X924886Y265944D01*
X924892Y266057D01*
X924902Y266170D01*
X924916Y266283D01*
X924933Y266395D01*
X924955Y266506D01*
X924980Y266616D01*
X925010Y266726D01*
X925043Y266834D01*
X925080Y266941D01*
X925120Y267047D01*
X925165Y267151D01*
X925213Y267254D01*
X925264Y267355D01*
X925319Y267454D01*
X925377Y267551D01*
X925439Y267646D01*
X925504Y267739D01*
X925572Y267829D01*
X925643Y267917D01*
X925718Y268003D01*
X925795Y268086D01*
X925875Y268166D01*
X925958Y268243D01*
X926044Y268318D01*
X926132Y268389D01*
X926222Y268457D01*
X926315Y268522D01*
X926410Y268584D01*
X926507Y268642D01*
X926606Y268697D01*
X926707Y268748D01*
X926810Y268796D01*
X926914Y268841D01*
X927020Y268881D01*
X927127Y268918D01*
X927235Y268951D01*
X927345Y268981D01*
X927455Y269006D01*
X927566Y269028D01*
X927678Y269045D01*
X927791Y269059D01*
X927904Y269069D01*
X928017Y269075D01*
X928130Y269077D01*
X936568Y269077D01*
X933972Y274397D02*
X936568Y277642D01*
X924884Y277642D01*
X924884Y274397D02*
X924884Y280888D01*
M02*
