G04 EAGLE Gerber RS-274X export*
G75*
%MOMM*%
%FSLAX34Y34*%
%LPD*%
%INSolderpaste Top*%
%IPPOS*%
%AMOC8*
5,1,8,0,0,1.08239X$1,22.5*%
G01*
%ADD10R,1.500000X2.000000*%
%ADD11R,2.000000X1.500000*%
%ADD12R,1.651000X1.000000*%
%ADD13R,1.000000X1.400000*%
%ADD14R,0.900000X0.800000*%
%ADD15R,1.400000X1.000000*%
%ADD16R,1.600000X2.000000*%
%ADD17R,2.000000X1.600000*%
%ADD18R,1.219200X2.235200*%
%ADD19R,3.600000X2.200000*%
%ADD20R,1.803000X1.600000*%
%ADD21R,1.600000X1.803000*%
%ADD22R,1.168400X0.355600*%


D10*
X191530Y224790D03*
X161530Y224790D03*
D11*
X692601Y531078D03*
X692601Y501078D03*
D10*
X212330Y335280D03*
X242330Y335280D03*
D11*
X199390Y521730D03*
X199390Y491730D03*
X120650Y295670D03*
X120650Y265670D03*
X118110Y455690D03*
X118110Y425690D03*
D10*
X187720Y394970D03*
X157720Y394970D03*
D11*
X327660Y443470D03*
X327660Y473470D03*
D12*
X728152Y530801D03*
X779692Y530801D03*
X779692Y498801D03*
X728152Y498801D03*
D13*
X222250Y142670D03*
X212750Y164670D03*
X231750Y164670D03*
D14*
X140810Y112420D03*
X140810Y131420D03*
X119810Y121920D03*
D15*
X178230Y266700D03*
X200230Y276200D03*
X200230Y257200D03*
D14*
X138270Y320700D03*
X138270Y339700D03*
X117270Y330200D03*
D15*
X208710Y466090D03*
X230710Y475590D03*
X230710Y456590D03*
D14*
X137000Y485800D03*
X137000Y504800D03*
X116000Y495300D03*
D16*
X190530Y165100D03*
X162530Y165100D03*
D17*
X161290Y492730D03*
X161290Y520730D03*
D16*
X177830Y464820D03*
X149830Y464820D03*
X149830Y433070D03*
X177830Y433070D03*
X186720Y363220D03*
X158720Y363220D03*
X240060Y363220D03*
X212060Y363220D03*
D17*
X266700Y444470D03*
X266700Y472470D03*
X298450Y472470D03*
X298450Y444470D03*
X368300Y229900D03*
X368300Y201900D03*
X330200Y229900D03*
X330200Y201900D03*
X791938Y347468D03*
X791938Y319468D03*
D16*
X162530Y196850D03*
X190530Y196850D03*
D17*
X827547Y347022D03*
X827547Y319022D03*
X819601Y502078D03*
X819601Y530078D03*
X165100Y105380D03*
X165100Y133380D03*
X198120Y133380D03*
X198120Y105380D03*
D16*
X213330Y191770D03*
X241330Y191770D03*
X363190Y316230D03*
X391190Y316230D03*
D17*
X186690Y298420D03*
X186690Y326420D03*
X153670Y267940D03*
X153670Y295940D03*
X229870Y284510D03*
X229870Y256510D03*
D18*
X228346Y498602D03*
X251460Y498602D03*
X274574Y498602D03*
D19*
X251460Y560580D03*
D20*
X304800Y496320D03*
X304800Y524760D03*
D21*
X91690Y297180D03*
X63250Y297180D03*
X91690Y462280D03*
X63250Y462280D03*
X92960Y119380D03*
X64520Y119380D03*
X660650Y40640D03*
X632210Y40640D03*
D16*
X570200Y40640D03*
X598200Y40640D03*
D17*
X336550Y495270D03*
X336550Y523270D03*
D16*
X91470Y429260D03*
X63470Y429260D03*
X91470Y262890D03*
X63470Y262890D03*
X92740Y85090D03*
X64740Y85090D03*
D22*
X389890Y133096D03*
X389890Y139700D03*
X389890Y146304D03*
X372110Y146304D03*
X372110Y139700D03*
X372110Y133096D03*
D17*
X406400Y229900D03*
X406400Y201900D03*
M02*
