G04 EAGLE Gerber RS-274X export*
G75*
%MOMM*%
%FSLAX34Y34*%
%LPD*%
%INSoldermask Top*%
%IPPOS*%
%AMOC8*
5,1,8,0,0,1.08239X$1,22.5*%
G01*
%ADD10R,1.703200X2.203200*%
%ADD11R,2.203200X1.703200*%
%ADD12C,2.216000*%
%ADD13R,1.854200X1.203200*%
%ADD14C,2.419200*%
%ADD15R,1.203200X1.603200*%
%ADD16R,1.103200X1.003200*%
%ADD17R,1.603200X1.203200*%
%ADD18R,1.803200X2.203200*%
%ADD19R,2.203200X1.803200*%
%ADD20C,2.903200*%
%ADD21C,3.203200*%
%ADD22C,2.603200*%
%ADD23C,2.243200*%
%ADD24R,1.422400X2.438400*%
%ADD25R,3.803200X2.403200*%
%ADD26C,2.724000*%
%ADD27R,2.006200X1.803200*%
%ADD28R,1.803200X2.006200*%
%ADD29R,1.371600X0.558800*%
%ADD30C,1.703200*%


D10*
X191530Y224790D03*
X161530Y224790D03*
D11*
X692601Y531078D03*
X692601Y501078D03*
D12*
X722630Y69850D03*
X758190Y69850D03*
X370840Y367030D03*
X406400Y367030D03*
D10*
X212330Y335280D03*
X242330Y335280D03*
D11*
X199390Y521730D03*
X199390Y491730D03*
X120650Y295670D03*
X120650Y265670D03*
X118110Y455690D03*
X118110Y425690D03*
D10*
X187720Y394970D03*
X157720Y394970D03*
D11*
X327660Y443470D03*
X327660Y473470D03*
D13*
X728152Y530801D03*
X779692Y530801D03*
X779692Y498801D03*
X728152Y498801D03*
D14*
X355600Y266700D03*
X330200Y266700D03*
D15*
X222250Y142670D03*
X212750Y164670D03*
X231750Y164670D03*
D16*
X140810Y112420D03*
X140810Y131420D03*
X119810Y121920D03*
D17*
X178230Y266700D03*
X200230Y276200D03*
X200230Y257200D03*
D16*
X138270Y320700D03*
X138270Y339700D03*
X117270Y330200D03*
D17*
X208710Y466090D03*
X230710Y475590D03*
X230710Y456590D03*
D16*
X137000Y485800D03*
X137000Y504800D03*
X116000Y495300D03*
D18*
X190530Y165100D03*
X162530Y165100D03*
D19*
X161290Y492730D03*
X161290Y520730D03*
D18*
X177830Y464820D03*
X149830Y464820D03*
X149830Y433070D03*
X177830Y433070D03*
X186720Y363220D03*
X158720Y363220D03*
X240060Y363220D03*
X212060Y363220D03*
D19*
X266700Y444470D03*
X266700Y472470D03*
X298450Y472470D03*
X298450Y444470D03*
X368300Y229900D03*
X368300Y201900D03*
X330200Y229900D03*
X330200Y201900D03*
X791938Y347468D03*
X791938Y319468D03*
D18*
X162530Y196850D03*
X190530Y196850D03*
D19*
X827547Y347022D03*
X827547Y319022D03*
X819601Y502078D03*
X819601Y530078D03*
X165100Y105380D03*
X165100Y133380D03*
X198120Y133380D03*
X198120Y105380D03*
D18*
X213330Y191770D03*
X241330Y191770D03*
X363190Y316230D03*
X391190Y316230D03*
D19*
X186690Y298420D03*
X186690Y326420D03*
X153670Y267940D03*
X153670Y295940D03*
X229870Y284510D03*
X229870Y256510D03*
D14*
X827064Y228273D03*
X827064Y163249D03*
X781852Y228273D03*
X781852Y163249D03*
X750864Y228273D03*
X750864Y163249D03*
X705652Y228273D03*
X705652Y163249D03*
X674664Y228273D03*
X674664Y163249D03*
X629452Y228273D03*
X629452Y163249D03*
D20*
X528320Y213360D03*
X528320Y40640D03*
X132080Y40640D03*
X132080Y213360D03*
D21*
X474980Y203200D03*
X177800Y50800D03*
D22*
X609600Y412750D03*
X609600Y318770D03*
X454660Y318770D03*
X454660Y412750D03*
D23*
X893201Y274778D03*
X867801Y274778D03*
X842401Y274778D03*
X817001Y274778D03*
X791601Y274778D03*
X766201Y274778D03*
X740801Y274778D03*
X715401Y274778D03*
X715401Y427178D03*
X740801Y427178D03*
X766201Y427178D03*
X791601Y427178D03*
X817001Y427178D03*
X842401Y427178D03*
X867801Y427178D03*
X893201Y427178D03*
D24*
X228346Y498602D03*
X251460Y498602D03*
X274574Y498602D03*
D25*
X251460Y560580D03*
D26*
X819404Y48260D03*
X869696Y48260D03*
X76200Y202946D03*
X76200Y152654D03*
X76200Y380746D03*
X76200Y330454D03*
X76200Y545846D03*
X76200Y495554D03*
D27*
X304800Y496320D03*
X304800Y524760D03*
D28*
X91690Y297180D03*
X63250Y297180D03*
X91690Y462280D03*
X63250Y462280D03*
X92960Y119380D03*
X64520Y119380D03*
X660650Y40640D03*
X632210Y40640D03*
D18*
X570200Y40640D03*
X598200Y40640D03*
D19*
X336550Y495270D03*
X336550Y523270D03*
D18*
X91470Y429260D03*
X63470Y429260D03*
X91470Y262890D03*
X63470Y262890D03*
X92740Y85090D03*
X64740Y85090D03*
D29*
X389890Y133096D03*
X389890Y139700D03*
X389890Y146304D03*
X372110Y146304D03*
X372110Y139700D03*
X372110Y133096D03*
D19*
X406400Y229900D03*
X406400Y201900D03*
D30*
X588010Y74930D03*
X586740Y285750D03*
X673100Y76200D03*
X673100Y139700D03*
X635000Y508000D03*
X635000Y571840D03*
X330200Y312420D03*
X330200Y556260D03*
X562610Y143510D03*
X562610Y236220D03*
X853440Y317500D03*
X744220Y316230D03*
X261620Y223520D03*
X262890Y367030D03*
X285750Y274320D03*
X284480Y414020D03*
M02*
