G04 EAGLE Gerber RS-274X export*
G75*
%MOMM*%
%FSLAX34Y34*%
%LPD*%
%INSoldermask Bottom*%
%IPPOS*%
%AMOC8*
5,1,8,0,0,1.08239X$1,22.5*%
G01*
%ADD10C,2.216000*%
%ADD11C,2.419200*%
%ADD12C,2.903200*%
%ADD13C,3.203200*%
%ADD14C,2.603200*%
%ADD15C,2.243200*%
%ADD16C,2.724000*%
%ADD17C,1.703200*%


D10*
X722630Y69850D03*
X758190Y69850D03*
X370840Y367030D03*
X406400Y367030D03*
D11*
X355600Y266700D03*
X330200Y266700D03*
X827064Y228273D03*
X827064Y163249D03*
X781852Y228273D03*
X781852Y163249D03*
X750864Y228273D03*
X750864Y163249D03*
X705652Y228273D03*
X705652Y163249D03*
X674664Y228273D03*
X674664Y163249D03*
X629452Y228273D03*
X629452Y163249D03*
D12*
X528320Y213360D03*
X528320Y40640D03*
X132080Y40640D03*
X132080Y213360D03*
D13*
X474980Y203200D03*
X177800Y50800D03*
D14*
X609600Y412750D03*
X609600Y318770D03*
X454660Y318770D03*
X454660Y412750D03*
D15*
X893201Y274778D03*
X867801Y274778D03*
X842401Y274778D03*
X817001Y274778D03*
X791601Y274778D03*
X766201Y274778D03*
X740801Y274778D03*
X715401Y274778D03*
X715401Y427178D03*
X740801Y427178D03*
X766201Y427178D03*
X791601Y427178D03*
X817001Y427178D03*
X842401Y427178D03*
X867801Y427178D03*
X893201Y427178D03*
D16*
X819404Y48260D03*
X869696Y48260D03*
X76200Y202946D03*
X76200Y152654D03*
X76200Y380746D03*
X76200Y330454D03*
X76200Y545846D03*
X76200Y495554D03*
D17*
X588010Y74930D03*
X586740Y285750D03*
X673100Y76200D03*
X673100Y139700D03*
X635000Y508000D03*
X635000Y571840D03*
X330200Y312420D03*
X330200Y556260D03*
X562610Y143510D03*
X562610Y236220D03*
X853440Y317500D03*
X744220Y316230D03*
X261620Y223520D03*
X262890Y367030D03*
X285750Y274320D03*
X284480Y414020D03*
M02*
