M48
;GenerationSoftware,Autodesk,EAGLE,9.6.2*%
;CreationDate,2025-10-22T15:43:57Z*%
FMAT,2
ICI,OFF
METRIC,TZ,000.000
T8C0.813
T7C0.840
T6C1.000
T5C1.016
T4C1.200
T3C1.321
T2C1.500
T1C3.000
%
G90
M71
T1
X47498Y20320
X17780Y5080
T2
X52832Y4064
X52832Y21336
X13208Y4064
X13208Y21336
T3
X7620Y49555
X81940Y4826
X86970Y4826
X7620Y20295
X7620Y15265
X7620Y38075
X7620Y33045
X7620Y54585
T4
X45466Y31877
X60960Y41275
X60960Y31877
X45466Y41275
T5
X62945Y16325
X35560Y26670
X33020Y26670
X82706Y22827
X82706Y16325
X78185Y22827
X78185Y16325
X75086Y22827
X75086Y16325
X70565Y22827
X70565Y16325
X67466Y22827
X67466Y16325
X62945Y22827
T6
X28448Y41402
X56261Y14351
X58801Y7493
X58674Y28575
X67310Y7620
X67310Y13970
X63500Y50800
X63500Y57184
X33020Y31242
X33020Y55626
X56261Y23622
X85344Y31750
X74422Y31623
X26162Y22352
X26289Y36703
X28575Y27432
T7
X79160Y27478
X76620Y27478
X74080Y27478
X71540Y42718
X74080Y42718
X76620Y42718
X79160Y42718
X81700Y42718
X84240Y42718
X86780Y42718
X71540Y27478
X89320Y27478
X86780Y27478
X84240Y27478
X81700Y27478
X89320Y42718
T8
X37084Y36703
X75819Y6985
X72263Y6985
X40640Y36703
M30